<?xml version="1.0" encoding="UTF-8" standalone="no"?>
<!DOCTYPE svg PUBLIC "-//W3C//DTD SVG 1.1//EN" "http://www.w3.org/Graphics/SVG/1.1/DTD/svg11.dtd">
<svg width="100%" height="100%" viewBox="0 0 12095 12095" version="1.1" xmlns="http://www.w3.org/2000/svg" xmlns:xlink="http://www.w3.org/1999/xlink" xml:space="preserve" xmlns:serif="http://www.serif.com/" style="fill-rule:evenodd;clip-rule:evenodd;stroke-linecap:round;stroke-linejoin:round;stroke-miterlimit:1.5;">
    <g transform="matrix(1.39774,0,0,1.50772,-1708.67,-1755.21)">
        <g id="图层1">
            <path d="M9664.06,3257.7L9664.06,7053.13C9664.06,8100.51 8746.82,8950.84 7617.03,8950.84L3480.73,8950.84C2350.94,8950.84 1433.7,8100.51 1433.7,7053.13L1433.7,3257.7C1433.7,2210.33 2350.94,1359.99 3480.73,1359.99L7617.03,1359.99C8746.82,1359.99 9664.06,2210.33 9664.06,3257.7Z" style="fill:white;"/>
        </g>
    </g>
    <path d="M8914.1,4557.71L2403.09,9282.76C2364.01,9311.13 2312.31,9315.17 2269.29,9293.24C2226.26,9271.3 2199.18,9227.08 2199.18,9178.79L2199.18,3050.59C2199.18,2995.09 2228.56,2943.73 2276.41,2915.6C2324.25,2887.46 2383.42,2886.76 2431.92,2913.74L4574.39,4105.72L4574.39,5180.67L3158.23,4351.98L3158.23,7447.07L9689.62,2790.3C9729.3,2762.01 9781.45,2758.26 9824.77,2780.57C9868.09,2802.89 9895.31,2847.53 9895.31,2896.26L9895.31,9198.75C9895.31,9245.71 9869.91,9289 9828.91,9311.9C9787.92,9334.81 9737.74,9333.75 9697.74,9309.13L7520.1,7968.66L7520.1,6886.18L8914.1,7776.31L8914.1,4557.71Z"/>
    <g transform="matrix(7.67248,0,0,10.1795,-6064.3,-6667.66)">
        <g id="logo">
            <path d="M1952.23,1102.74C1952.23,1102.74 1250.08,1486.79 1103.61,1566.91C1098.51,1569.69 1091.77,1570.09 1086.17,1567.94C1080.56,1565.78 1077.03,1561.44 1077.03,1556.69L1077.03,954.684C1077.03,949.232 1080.86,944.186 1087.09,941.422C1093.33,938.659 1101.04,938.589 1107.36,941.24C1185.32,973.932 1386.6,1058.34 1386.6,1058.34L1386.6,1163.93L1202.03,1082.53L1202.03,1386.58C1202.03,1386.58 1906.03,1008.25 2053.3,929.114C2058.47,926.335 2065.27,925.966 2070.92,928.158C2076.56,930.351 2080.11,934.736 2080.11,939.523L2080.11,1558.65C2080.11,1563.27 2076.8,1567.52 2071.46,1569.77C2066.12,1572.02 2059.57,1571.92 2054.36,1569.5C1980.06,1535.03 1770.54,1437.82 1770.54,1437.82L1770.54,1331.48L1952.23,1418.92L1952.23,1102.74Z" style="fill:none;stroke:black;stroke-width:0.45px;"/>
        </g>
    </g>
</svg>
